# xmcd
#
# Track frame offsets:
#	150
#	10344
#	21399
#	29509
#	41128
#	52226
#	62181
#	73500
#	85614
#	99581
#	110131
#	119545
#	129145
#	140098
#	150543
#	161465
#	172703
#	184320
#	196162
#	207924
#	224123
#	234992
#
# Disc length: 3265 seconds
#
# Revision: 1
# Processed by: cddbd v1.5.2PL0 Copyright (c) Steve Scherf et al.
# Submitted via: audiograbber 1.83.01
#
DISCID=410cbf16
DTITLE=Various Artist - Northern Soul Hall Of Fame, Vol. 2
DYEAR=2008
DGENRE=Soul
TTITLE0=Major Lance - You Don't Want Me No More
TTITLE1=Lorraine Chandler - I Can't Hold On
TTITLE2=Don Ray - Born A Loser
TTITLE3=The Sweet Things - I'm In A World Of Trouble
TTITLE4=The Triumphs - I'm Coming To Your Rescue
TTITLE5=Billy Butler and The Enchanters - Nevertheless
TTITLE6=Johnny Moore - Walk Like A Man
TTITLE7=Larry Williams and Johnny Watson - A Quitter Never Wins
TTITLE8=Little Richard - A Little Bit Of Something
TTITLE9=Major Harris - Call Me Tomorrow
TTITLE10=Michael and Raymond - A Man Without A Woman
TTITLE11=Nancy Ames - I Don't Want To Talk About It
TTITLE12=The Seven Souls - I Still Love You
TTITLE13=Susan Barrett - What's It Gonna Be
TTITLE14=The Glories - I Worship You Baby
TTITLE15=Willie Kendrick - Change Your Ways
TTITLE16=Laura Greene - Moonlight, Music And You
TTITLE17=Paul Anka - When We Get There
TTITLE18=The Spellbinders - Chain Reaction
TTITLE19=The Drifters - Pour Your Little Heart Out
TTITLE20=The Artistics - This Heart Of Mine
TTITLE21=Tony Middleton - Paris Blues
EXTD=
EXTT0=
EXTT1=
EXTT2=
EXTT3=
EXTT4=
EXTT5=
EXTT6=
EXTT7=
EXTT8=
EXTT9=
EXTT10=
EXTT11=
EXTT12=
EXTT13=
EXTT14=
EXTT15=
EXTT16=
EXTT17=
EXTT18=
EXTT19=
EXTT20=
EXTT21=
PLAYORDER=
